# xmcd CD database file
#
# Track frame offsets:
#	150
#	18060
#	31344
#	48540
#	67347
#	84927
#	101522
#	118020
#	145830
#	159345
#	177147
#	198880
#	224410
#	255942
#	278030
#	291732
#
# Disc length: 4181 seconds
#
# Revision: 0
# Processed by: cddbd v1.5.1PL0 Copyright (c) Steve Scherf et al.
# Submitted via: cdripper 1.0.10
#
DISCID=e2105310
DTITLE=Various Artist - Vent Records - To The Blues
DYEAR=1999
DGENRE=Blues
TTITLE0=Topper Price and the Upsetters - Terra Plain Blues
TTITLE1=Little Jimmy Reed - Help Me To Spend This Dough
TTITLE2=Dick's Hat Band - I'd Rather Drink Muddy Water
TTITLE3=Mark Sallings and The Famous Unknowns - Mighty Oaks
TTITLE4=Little Whitt and Big Bo - Walking blues
TTITLE5=The King Brohers - 'Bout To Loose My Mind
TTITLE6=Dick's Hat Band - Big Daddy's Got A Brand New Toy
TTITLE7=Topper Price and the Upsetters - Who's Been Talkin'
TTITLE8=The Pounders - She Turns Me On
TTITLE9=Dick's Hat Band - You've Got The Whole Town Talkin'
TTITLE10=Little Whitt and Big Bo - The Burning
TTITLE11=Little Jimmy Reed - My Little Dog
TTITLE12=Mark Sallings and The Famous Unknowns - TW Bb Blues
TTITLE13=The King Brothers - Blues Man
TTITLE14=The Pounders - Shakin' That Thing
TTITLE15=Dick's Hat Band - Make You Mine
EXTD=YEAR: 1999
EXTT0=
EXTT1=
EXTT2=
EXTT3=
EXTT4=
EXTT5=
EXTT6=
EXTT7=
EXTT8=
EXTT9=
EXTT10=
EXTT11=
EXTT12=
EXTT13=
EXTT14=
EXTT15=
PLAYORDER=
